# xmcd
#
# Track frame offsets:
#	150
#	18267
#	34562
#	56782
#	79372
#	101247
#	126985
#
# Disc length: 2055 seconds
#
# Revision: 1
# Processed by: cddbd v1.5PL3 Copyright (c) Steve Scherf et al.
# Submitted via: EasyCDDAExtractor 7.0.0.1
#
DISCID=5a080507
DTITLE=Ben Harper - Catalog Sampler
DYEAR=1999
DGENRE=Jazz+Funk
TTITLE0=Breakin' Down
TTITLE1=I'll Rise
TTITLE2=Ground On Down
TTITLE3=Gold To Me
TTITLE4=Faded
TTITLE5=Glory and Consequence
TTITLE6=Voodoo Chile (live)
EXTD=
EXTT0=
EXTT1=
EXTT2=
EXTT3=
EXTT4=
EXTT5=
EXTT6=
PLAYORDER=
